<svg width="846" height="360" viewBox="0 0 846 360" fill="none" xmlns="http://www.w3.org/2000/svg">
<g clip-path="url(#clip0)">
<rect x="83" y="229" width="718" height="69" fill="#FBFF32"/>
<path d="M147.104 253.432H146.528C141.728 260.92 135.296 266.296 127.232 269.56C119.36 272.824 111.008 274.456 102.176 274.456C95.648 274.456 89.312 273.496 83.168 271.576C77.216 269.848 71.936 267.16 67.328 263.512C62.72 259.864 59.072 255.352 56.384 249.976C53.696 244.6 52.352 238.36 52.352 231.256C52.352 223.192 53.792 216.376 56.672 210.808C59.744 205.24 63.776 200.632 68.768 196.984C73.952 193.336 79.808 190.552 86.336 188.632C92.864 186.52 99.584 184.984 106.496 184.024C113.6 183.064 120.608 182.488 127.52 182.296C134.624 182.104 141.152 182.008 147.104 182.008C147.104 174.328 144.32 168.28 138.752 163.864C133.376 159.256 126.944 156.952 119.456 156.952C112.352 156.952 105.824 158.488 99.872 161.56C94.112 164.44 88.928 168.472 84.32 173.656L61.28 150.04C69.344 142.552 78.752 136.984 89.504 133.336C100.256 129.496 111.392 127.576 122.912 127.576C135.584 127.576 145.952 129.208 154.016 132.472C162.272 135.544 168.8 140.152 173.6 146.296C178.592 152.44 182.048 160.024 183.968 169.048C185.888 177.88 186.848 188.152 186.848 199.864V271H147.104V253.432ZM136.448 209.656C133.184 209.656 129.056 209.848 124.064 210.232C119.264 210.424 114.56 211.192 109.952 212.536C105.536 213.88 101.696 215.896 98.432 218.584C95.36 221.272 93.824 225.016 93.824 229.816C93.824 235 96.032 238.84 100.448 241.336C104.864 243.832 109.472 245.08 114.272 245.08C118.496 245.08 122.528 244.504 126.368 243.352C130.4 242.2 133.952 240.568 137.024 238.456C140.096 236.344 142.496 233.656 144.224 230.392C146.144 227.128 147.104 223.288 147.104 218.872V209.656H136.448ZM213.952 131.032H257.152V153.496H257.728C262.336 144.856 267.808 138.424 274.144 134.2C280.48 129.784 288.448 127.576 298.048 127.576C300.544 127.576 303.04 127.672 305.536 127.864C308.032 128.056 310.336 128.44 312.448 129.016V168.472C309.376 167.512 306.304 166.84 303.232 166.456C300.352 165.88 297.28 165.592 294.016 165.592C285.76 165.592 279.232 166.744 274.432 169.048C269.632 171.352 265.888 174.616 263.2 178.84C260.704 182.872 259.072 187.768 258.304 193.528C257.536 199.288 257.152 205.624 257.152 212.536V271H213.952V131.032ZM426.561 165.592H388.545V212.248C388.545 216.088 388.737 219.64 389.121 222.904C389.505 225.976 390.369 228.664 391.713 230.968C393.057 233.272 395.073 235.096 397.761 236.44C400.641 237.592 404.385 238.168 408.993 238.168C411.297 238.168 414.273 237.976 417.921 237.592C421.761 237.016 424.641 235.864 426.561 234.136V270.136C421.761 271.864 416.769 273.016 411.585 273.592C406.401 274.168 401.313 274.456 396.321 274.456C389.025 274.456 382.305 273.688 376.161 272.152C370.017 270.616 364.641 268.216 360.033 264.952C355.425 261.496 351.777 257.08 349.089 251.704C346.593 246.328 345.345 239.8 345.345 232.12V165.592H317.697V131.032H345.345V89.56H388.545V131.032H426.561V165.592ZM580.994 246.808C574.082 255.64 565.346 262.456 554.786 267.256C544.226 272.056 533.282 274.456 521.954 274.456C511.202 274.456 501.026 272.728 491.426 269.272C482.018 265.816 473.762 260.92 466.658 254.584C459.746 248.056 454.274 240.28 450.242 231.256C446.21 222.232 444.194 212.152 444.194 201.016C444.194 189.88 446.21 179.8 450.242 170.776C454.274 161.752 459.746 154.072 466.658 147.736C473.762 141.208 482.018 136.216 491.426 132.76C501.026 129.304 511.202 127.576 521.954 127.576C531.938 127.576 540.962 129.304 549.026 132.76C557.282 136.216 564.194 141.208 569.762 147.736C575.522 154.072 579.938 161.752 583.01 170.776C586.082 179.8 587.618 189.88 587.618 201.016V214.552H487.394C489.122 222.808 492.866 229.432 498.626 234.424C504.386 239.224 511.49 241.624 519.938 241.624C527.042 241.624 532.994 240.088 537.794 237.016C542.786 233.752 547.106 229.624 550.754 224.632L580.994 246.808ZM544.418 185.176C544.61 177.88 542.21 171.64 537.218 166.456C532.226 161.272 525.794 158.68 517.922 158.68C513.122 158.68 508.898 159.448 505.25 160.984C501.602 162.52 498.434 164.536 495.746 167.032C493.25 169.336 491.234 172.12 489.698 175.384C488.354 178.456 487.586 181.72 487.394 185.176H544.418ZM613.889 131.032H657.089V153.496H657.665C662.273 144.856 667.745 138.424 674.081 134.2C680.417 129.784 688.385 127.576 697.985 127.576C700.481 127.576 702.977 127.672 705.473 127.864C707.969 128.056 710.273 128.44 712.385 129.016V168.472C709.313 167.512 706.241 166.84 703.169 166.456C700.289 165.88 697.217 165.592 693.953 165.592C685.697 165.592 679.169 166.744 674.369 169.048C669.569 171.352 665.825 174.616 663.137 178.84C660.641 182.872 659.009 187.768 658.241 193.528C657.473 199.288 657.089 205.624 657.089 212.536V271H613.889V131.032Z" fill="black"/>
</g>
<defs>
<clipPath id="clip0">
<rect width="846" height="360" fill="white"/>
</clipPath>
</defs>
</svg>
